<svg width="74" height="86" viewBox="0 0 74 86" fill="none" xmlns="http://www.w3.org/2000/svg">
<g filter="url(#filter0_dd_7908_116094)">
<path d="M4 36C4 17.7746 18.7746 3 37 3C55.2254 3 70 17.7746 70 36V78C70 79.6569 68.6569 81 67 81H7C5.34315 81 4 79.6569 4 78V36Z" fill="#05192D" stroke="#06BDFC" stroke-width="2"/>
<circle cx="37" cy="33" r="25" stroke="url(#paint0_linear_7908_116094)"/>
<circle cx="37" cy="33" r="20" stroke="url(#paint1_linear_7908_116094)"/>
<circle cx="37" cy="32" r="14" fill="url(#paint2_linear_7908_116094)"/>
<g filter="url(#filter1_d_7908_116094)">
<circle cx="37" cy="32" r="10" fill="white"/>
</g>
<path fill-rule="evenodd" clip-rule="evenodd" d="M36.9999 26.666C39.025 26.666 40.6666 28.3076 40.6666 30.3327C40.6666 31.4713 40.1476 32.4887 39.3333 33.1612V36.7637C39.3333 37.2265 38.8773 37.5404 38.4533 37.3955L38.3831 37.3671L36.9986 36.716L35.6173 37.3668C35.1984 37.5641 34.72 37.2849 34.6708 36.8394L34.6666 36.7637V33.1613C33.8523 32.4887 33.3333 31.4713 33.3333 30.3327C33.3333 28.3076 34.9749 26.666 36.9999 26.666ZM35.9999 33.8613V35.712L36.7142 35.3765C36.8683 35.304 37.0432 35.2936 37.2032 35.3453L37.2818 35.3763L37.9999 35.7134V33.8613C37.682 33.9512 37.3466 33.9993 36.9999 33.9993C36.6533 33.9993 36.3178 33.9512 35.9999 33.8613ZM36.9999 27.9992C35.7112 27.9992 34.6666 29.0439 34.6666 30.3325C34.6666 31.6212 35.7112 32.6659 36.9999 32.6659C38.2886 32.6659 39.3332 31.6212 39.3332 30.3325C39.3332 29.0439 38.2886 27.9992 36.9999 27.9992Z" fill="#05192D"/>
<g clip-path="url(#clip0_7908_116094)">
<path fill-rule="evenodd" clip-rule="evenodd" d="M24.8494 50.3841V51.739L23.4517 52.559V49.5591L24.8494 50.3841ZM25.3017 53.2307V52.0095L27.1733 50.9109L26.7181 50.6427L25.3017 51.4739V50.2485C25.3014 50.1653 25.2582 50.0884 25.1881 50.0467L23.4831 49.0414C23.4785 49.0386 23.474 49.0362 23.4694 49.0339C23.3682 48.9832 23.2486 48.9897 23.1532 49.0513C23.0577 49.1128 22.9998 49.2206 23 49.3364V52.7809C22.9996 52.8969 23.0575 53.0049 23.153 53.0666C23.2485 53.1283 23.3683 53.135 23.4697 53.0843L23.4826 53.0775L24.8484 52.2754V53.3681C24.8487 53.4516 24.8921 53.5286 24.9625 53.5702L26.7153 54.5932L27.1706 54.3247L25.3017 53.2307Z" fill="#03EF62"/>
</g>
<path d="M31.0098 53.8717C31.9234 53.8717 32.5705 53.2844 32.75 52.5285H32.1518C31.9778 53.0125 31.5264 53.3061 31.0098 53.3061C30.2213 53.3061 29.6122 52.6699 29.6122 51.8813C29.6122 51.0928 30.2213 50.4566 31.0098 50.4566C31.4829 50.4566 31.9886 50.7774 32.1355 51.2288H32.7337C32.5705 50.5218 31.9016 49.891 31.0098 49.891C29.9113 49.891 29.0466 50.7829 29.0466 51.8813C29.0466 52.9798 29.9113 53.8717 31.0098 53.8717Z" fill="white"/>
<path d="M35.8265 52.6101C35.832 52.5502 35.8374 52.4795 35.8374 52.4034C35.8374 51.6366 35.2827 51.0004 34.5323 51.0004C33.7601 51.0004 33.1891 51.6366 33.1891 52.436C33.1891 53.2517 33.7492 53.8717 34.5594 53.8717C35.4241 53.8717 35.745 53.2082 35.7885 52.9418H35.2066C35.1522 53.1049 34.951 53.3605 34.5594 53.3605C34.0809 53.3605 33.8199 53.0288 33.7709 52.6101H35.8265ZM34.5323 51.5116C34.951 51.5116 35.2011 51.8107 35.261 52.1859H33.7872C33.8579 51.8052 34.1135 51.5116 34.5323 51.5116Z" fill="white"/>
<path d="M37.7481 51.0004C37.4055 51.0004 37.1499 51.1581 37.0031 51.4028V51.033H36.4375V53.8391H37.0031V52.3327C37.0031 51.7943 37.3022 51.5551 37.7264 51.5551C37.8514 51.5551 37.9548 51.5714 38.02 51.5823V51.0167C37.9548 51.0113 37.8786 51.0004 37.7481 51.0004Z" fill="white"/>
<path d="M39.6124 53.3442C39.4057 53.3442 39.2698 53.2517 39.2698 53.0179V51.5279H39.9876V51.033H39.2698V50.239H38.7042V51.033H38.2257V51.5279H38.7042V53.0288C38.7042 53.5998 39.0142 53.8717 39.509 53.8717C39.7048 53.8717 39.8897 53.8064 39.9876 53.7684V53.2409C39.9169 53.2735 39.7592 53.3442 39.6124 53.3442Z" fill="white"/>
<path d="M40.8521 50.636C41.0805 50.636 41.2709 50.4566 41.2709 50.2282C41.2709 49.9998 41.086 49.8203 40.8521 49.8203C40.6237 49.8203 40.4443 49.9998 40.4443 50.2282C40.4443 50.4566 40.6237 50.636 40.8521 50.636ZM41.1295 51.033H40.5639V53.8391H41.1295V51.033Z" fill="white"/>
<path d="M42.7275 51.033V50.772C42.7275 50.5327 42.8906 50.4239 43.0919 50.4239C43.2278 50.4239 43.3529 50.4566 43.429 50.4892V49.9671C43.342 49.9345 43.1517 49.891 42.9396 49.891C42.461 49.891 42.1619 50.2499 42.1619 50.7611V51.033H41.7106V51.5279H42.1619V53.8391H42.7275V51.5279H43.4508V51.033H42.7275Z" fill="white"/>
<path d="M44.2615 50.636C44.4899 50.636 44.6803 50.4566 44.6803 50.2282C44.6803 49.9998 44.4954 49.8203 44.2615 49.8203C44.0331 49.8203 43.8537 49.9998 43.8537 50.2282C43.8537 50.4566 44.0331 50.636 44.2615 50.636ZM44.5389 51.033H43.9733V53.8391H44.5389V51.033Z" fill="white"/>
<path d="M47.8179 52.6101C47.8234 52.5502 47.8288 52.4795 47.8288 52.4034C47.8288 51.6366 47.2741 51.0004 46.5237 51.0004C45.7515 51.0004 45.1805 51.6366 45.1805 52.436C45.1805 53.2517 45.7406 53.8717 46.5509 53.8717C47.4155 53.8717 47.7364 53.2082 47.7799 52.9418H47.198C47.1436 53.1049 46.9424 53.3605 46.5509 53.3605C46.0723 53.3605 45.8113 53.0288 45.7623 52.6101H47.8179ZM46.5237 51.5116C46.9424 51.5116 47.1926 51.8107 47.2524 52.1859H45.7787C45.8493 51.8052 46.1049 51.5116 46.5237 51.5116Z" fill="white"/>
<path d="M50.4345 49.9236V51.4626C50.255 51.1961 49.9287 51.0004 49.548 51.0004C48.89 51.0004 48.319 51.6094 48.319 52.436C48.319 53.2626 48.89 53.8717 49.548 53.8717C49.9287 53.8717 50.2332 53.7249 50.4345 53.4095V53.8391H51V49.9236H50.4345ZM49.6786 53.3224C49.2163 53.3224 48.8846 52.9255 48.8846 52.436C48.8846 51.9466 49.2163 51.5551 49.6786 51.5551C50.1408 51.5551 50.4345 51.9466 50.4345 52.436C50.4345 52.9255 50.1408 53.3224 49.6786 53.3224Z" fill="white"/>
<path d="M12.4711 57.9314V63.6914H14.7191C16.2951 63.6914 17.5991 62.4354 17.5991 60.8114C17.5991 59.1874 16.2871 57.9314 14.7191 57.9314H12.4711ZM13.5351 62.6274V58.9954H14.7191C15.7191 58.9954 16.5351 59.8114 16.5351 60.8114C16.5351 61.8114 15.7191 62.6274 14.7191 62.6274H13.5351ZM21.136 60.0914C20.832 59.7394 20.408 59.5154 19.928 59.5154C18.944 59.5154 18.16 60.4594 18.16 61.6274C18.16 62.7954 18.944 63.7394 19.928 63.7394C20.408 63.7394 20.824 63.5154 21.136 63.1634V63.6914H22.2V59.5634H21.136V60.0914ZM20.184 62.6834C19.648 62.6834 19.216 62.2114 19.216 61.6274C19.216 61.0434 19.648 60.5794 20.184 60.5794C20.72 60.5794 21.136 61.0434 21.136 61.6274C21.136 62.2114 20.72 62.6834 20.184 62.6834ZM25.1381 62.7634C24.8421 62.7634 24.6341 62.6434 24.6341 62.3234V60.4914H25.6101V59.5634H24.6341V58.3874H23.5701V59.5634H22.8981V60.4914H23.5701V62.3474C23.5701 63.3154 24.0821 63.7394 24.8981 63.7394C25.1301 63.7394 25.3861 63.6914 25.6101 63.6274V62.6834C25.4661 62.7234 25.2981 62.7634 25.1381 62.7634ZM29.0657 60.0914C28.7617 59.7394 28.3377 59.5154 27.8577 59.5154C26.8737 59.5154 26.0897 60.4594 26.0897 61.6274C26.0897 62.7954 26.8737 63.7394 27.8577 63.7394C28.3377 63.7394 28.7537 63.5154 29.0657 63.1634V63.6914H30.1297V59.5634H29.0657V60.0914ZM28.1137 62.6834C27.5777 62.6834 27.1457 62.2114 27.1457 61.6274C27.1457 61.0434 27.5777 60.5794 28.1137 60.5794C28.6497 60.5794 29.0657 61.0434 29.0657 61.6274C29.0657 62.2114 28.6497 62.6834 28.1137 62.6834ZM38.7315 63.6914L36.4995 57.9314H35.3395L33.0995 63.6914H34.2515L34.8195 62.2194H37.0115L37.5795 63.6914H38.7315ZM35.4035 60.7154C35.6035 60.2194 35.7555 59.7954 35.9075 59.3314H35.9155C36.0835 59.7954 36.2355 60.2194 36.4275 60.7154L36.6275 61.2354H35.2035L35.4035 60.7154ZM41.5286 59.5154C41.0566 59.5154 40.6246 59.7394 40.3846 60.1074V59.5634H39.3526V63.6914H40.4166V61.3954C40.4166 60.9074 40.7606 60.5794 41.2006 60.5794C41.6326 60.5794 41.9766 60.8994 41.9766 61.3874V63.6914H43.0406V61.2594C43.0406 60.0754 42.4486 59.5154 41.5286 59.5154ZM46.8235 60.0914C46.5195 59.7394 46.0955 59.5154 45.6155 59.5154C44.6315 59.5154 43.8475 60.4594 43.8475 61.6274C43.8475 62.7954 44.6315 63.7394 45.6155 63.7394C46.0955 63.7394 46.5115 63.5154 46.8235 63.1634V63.6914H47.8875V59.5634H46.8235V60.0914ZM45.8715 62.6834C45.3355 62.6834 44.9035 62.2114 44.9035 61.6274C44.9035 61.0434 45.3355 60.5794 45.8715 60.5794C46.4075 60.5794 46.8235 61.0434 46.8235 61.6274C46.8235 62.2114 46.4075 62.6834 45.8715 62.6834ZM49.0016 57.9314V63.6914H50.0656V57.9314H49.0016ZM53.7737 59.5634V61.8594C53.7737 62.2994 53.4297 62.6754 52.9897 62.6754C52.5417 62.6754 52.2137 62.3074 52.2137 61.8594V59.5634H51.1497V62.0514C51.1497 63.0034 51.6217 63.7394 52.5737 63.7394C53.0297 63.7394 53.4777 63.5074 53.7737 63.1794V63.6114C53.7737 64.1874 53.4217 64.6674 52.8377 64.6674C52.3337 64.6674 51.9817 64.3714 51.9337 63.9714H50.8297C50.8697 64.7394 51.5417 65.6594 52.8217 65.6594C53.9497 65.6594 54.8377 64.7954 54.8377 63.5954V59.5634H53.7737ZM55.6349 62.2994C55.6429 62.9714 56.2029 63.7394 57.2589 63.7394C58.1629 63.7394 58.8429 63.2434 58.8589 62.3954C58.8749 61.8114 58.4669 61.3554 57.6589 61.1714L57.0989 61.0434C56.8909 60.9954 56.7869 60.8914 56.7869 60.7234C56.7869 60.5154 56.9709 60.3634 57.2669 60.3634C57.5629 60.3634 57.7789 60.5714 57.7869 60.8674H58.7309C58.7309 60.2034 58.1629 59.5154 57.2749 59.5154C56.3789 59.5154 55.7389 60.0194 55.7389 60.7394C55.7389 61.3314 56.0509 61.7714 56.8269 61.9634L57.3309 62.0834C57.6509 62.1634 57.8109 62.2594 57.8109 62.4674C57.8109 62.6914 57.5869 62.8274 57.3069 62.8274C56.9789 62.8274 56.7069 62.6354 56.6989 62.2994H55.6349ZM61.3881 62.7634C61.0921 62.7634 60.8841 62.6434 60.8841 62.3234V60.4914H61.8601V59.5634H60.8841V58.3874H59.8201V59.5634H59.1481V60.4914H59.8201V62.3474C59.8201 63.3154 60.3321 63.7394 61.1481 63.7394C61.3801 63.7394 61.6361 63.6914 61.8601 63.6274V62.6834C61.7161 62.7234 61.5481 62.7634 61.3881 62.7634Z" fill="white"/>
<path d="M3 70H71V78C71 80.2091 69.2091 82 67 82H7C4.79086 82 3 80.2091 3 78V70Z" fill="#06BDFC"/>
<path d="M12.1759 73.68H10.4299V78H11.2279V76.464H12.1819C12.9799 76.464 13.5619 75.774 13.5619 75.072C13.5619 74.376 12.9799 73.686 12.1759 73.68ZM11.2279 75.672V74.478H12.1639C12.5239 74.478 12.7579 74.778 12.7579 75.072C12.7579 75.372 12.5239 75.672 12.1639 75.672H11.2279ZM18.1186 78L17.2726 76.332C17.7286 76.104 18.0766 75.618 18.0766 75.078C18.0766 74.334 17.4166 73.68 16.7206 73.68H14.9506V78H15.7486V76.464H16.4446L17.2186 78H18.1186ZM16.7206 74.478C17.0326 74.478 17.2786 74.766 17.2786 75.078C17.2786 75.39 17.0326 75.672 16.7206 75.672H15.7486V74.478H16.7206ZM21.4686 78.036C22.6806 78.036 23.6586 77.052 23.6586 75.84C23.6586 74.628 22.6806 73.644 21.4686 73.644C20.2566 73.644 19.2846 74.628 19.2846 75.84C19.2846 77.052 20.2566 78.036 21.4686 78.036ZM21.4686 77.238C20.6946 77.238 20.0826 76.614 20.0826 75.84C20.0826 75.066 20.6946 74.442 21.4686 74.442C22.2426 74.442 22.8606 75.066 22.8606 75.84C22.8606 76.614 22.2426 77.238 21.4686 77.238ZM25.1404 73.68V78H25.9384V76.266H27.8704V75.474H25.9384V74.478H28.0864V73.68H25.1404ZM29.5322 73.68V78H32.5502V77.202H30.3302V76.236H32.3222V75.444H30.3302V74.478H32.5502V73.68H29.5322ZM33.8782 76.488C33.8842 77.448 34.6102 78.036 35.4802 78.036C36.3382 78.036 36.9442 77.502 36.9442 76.734C36.9442 76.068 36.5422 75.66 35.7322 75.456L35.2402 75.33C34.9162 75.246 34.8202 75.066 34.8202 74.892C34.8202 74.658 35.0302 74.406 35.4022 74.406C35.7682 74.406 36.0202 74.67 36.0202 75.03H36.8062C36.8062 74.286 36.2782 73.644 35.4382 73.644C34.6702 73.644 33.9982 74.154 33.9982 74.886C33.9982 75.468 34.4122 75.924 35.1142 76.098L35.6182 76.224C35.9362 76.302 36.1222 76.494 36.1222 76.746C36.1222 77.004 35.9122 77.268 35.4802 77.268C35.0062 77.268 34.6882 76.986 34.6822 76.488H33.8782ZM38.1587 76.488C38.1647 77.448 38.8907 78.036 39.7607 78.036C40.6187 78.036 41.2247 77.502 41.2247 76.734C41.2247 76.068 40.8227 75.66 40.0127 75.456L39.5207 75.33C39.1967 75.246 39.1007 75.066 39.1007 74.892C39.1007 74.658 39.3107 74.406 39.6827 74.406C40.0487 74.406 40.3007 74.67 40.3007 75.03H41.0867C41.0867 74.286 40.5587 73.644 39.7187 73.644C38.9507 73.644 38.2787 74.154 38.2787 74.886C38.2787 75.468 38.6927 75.924 39.3947 76.098L39.8987 76.224C40.2167 76.302 40.4027 76.494 40.4027 76.746C40.4027 77.004 40.1927 77.268 39.7607 77.268C39.2867 77.268 38.9687 76.986 38.9627 76.488H38.1587ZM42.6432 73.68V78H43.4412V73.68H42.6432ZM47.1045 78.036C48.3165 78.036 49.2945 77.052 49.2945 75.84C49.2945 74.628 48.3165 73.644 47.1045 73.644C45.8925 73.644 44.9205 74.628 44.9205 75.84C44.9205 77.052 45.8925 78.036 47.1045 78.036ZM47.1045 77.238C46.3305 77.238 45.7185 76.614 45.7185 75.84C45.7185 75.066 46.3305 74.442 47.1045 74.442C47.8785 74.442 48.4965 75.066 48.4965 75.84C48.4965 76.614 47.8785 77.238 47.1045 77.238ZM53.6085 75.96V76.788H53.6025C53.4285 76.464 53.2965 76.23 53.1285 75.96L51.7065 73.68H50.7705V78H51.5685V75.714V74.904H51.5745C51.7425 75.21 51.8985 75.48 52.0485 75.72L53.4825 78H54.4065V73.68H53.6085V75.96ZM59.9397 78L58.2657 73.68H57.3957L55.7157 78H56.5797L57.0057 76.896H58.6497L59.0757 78H59.9397ZM57.4437 75.768C57.5937 75.396 57.7077 75.078 57.8217 74.73H57.8277C57.9537 75.078 58.0677 75.396 58.2117 75.768L58.3617 76.158H57.2937L57.4437 75.768ZM62.0455 73.68H61.2475V78H63.9055V77.202H62.0455V73.68Z" fill="#05192D"/>
</g>
<defs>
<filter id="filter0_dd_7908_116094" x="0" y="0" width="74" height="86" filterUnits="userSpaceOnUse" color-interpolation-filters="sRGB">
<feFlood flood-opacity="0" result="BackgroundImageFix"/>
<feColorMatrix in="SourceAlpha" type="matrix" values="0 0 0 0 0 0 0 0 0 0 0 0 0 0 0 0 0 0 127 0" result="hardAlpha"/>
<feMorphology radius="1" operator="erode" in="SourceAlpha" result="effect1_dropShadow_7908_116094"/>
<feOffset dy="1"/>
<feGaussianBlur stdDeviation="2"/>
<feColorMatrix type="matrix" values="0 0 0 0 0.0196078 0 0 0 0 0.0980392 0 0 0 0 0.176471 0 0 0 0.3 0"/>
<feBlend mode="normal" in2="BackgroundImageFix" result="effect1_dropShadow_7908_116094"/>
<feColorMatrix in="SourceAlpha" type="matrix" values="0 0 0 0 0 0 0 0 0 0 0 0 0 0 0 0 0 0 127 0" result="hardAlpha"/>
<feOffset/>
<feGaussianBlur stdDeviation="0.5"/>
<feColorMatrix type="matrix" values="0 0 0 0 0.0196078 0 0 0 0 0.0980392 0 0 0 0 0.176471 0 0 0 0.3 0"/>
<feBlend mode="normal" in2="effect1_dropShadow_7908_116094" result="effect2_dropShadow_7908_116094"/>
<feBlend mode="normal" in="SourceGraphic" in2="effect2_dropShadow_7908_116094" result="shape"/>
</filter>
<filter id="filter1_d_7908_116094" x="9.75603" y="18.5512" width="54.4879" height="54.4879" filterUnits="userSpaceOnUse" color-interpolation-filters="sRGB">
<feFlood flood-opacity="0" result="BackgroundImageFix"/>
<feColorMatrix in="SourceAlpha" type="matrix" values="0 0 0 0 0 0 0 0 0 0 0 0 0 0 0 0 0 0 127 0" result="hardAlpha"/>
<feOffset dy="13.7952"/>
<feGaussianBlur stdDeviation="8.62199"/>
<feComposite in2="hardAlpha" operator="out"/>
<feColorMatrix type="matrix" values="0 0 0 0 0 0 0 0 0 0.0313726 0 0 0 0 0.12549 0 0 0 1 0"/>
<feBlend mode="normal" in2="BackgroundImageFix" result="effect1_dropShadow_7908_116094"/>
<feBlend mode="normal" in="SourceGraphic" in2="effect1_dropShadow_7908_116094" result="shape"/>
</filter>
<linearGradient id="paint0_linear_7908_116094" x1="37" y1="8" x2="37" y2="43.9375" gradientUnits="userSpaceOnUse">
<stop stop-color="#06BDFC"/>
<stop offset="1" stop-color="#05192D"/>
</linearGradient>
<linearGradient id="paint1_linear_7908_116094" x1="37" y1="13" x2="37" y2="41.75" gradientUnits="userSpaceOnUse">
<stop stop-color="#06BDFC"/>
<stop offset="1" stop-color="#05192D"/>
</linearGradient>
<linearGradient id="paint2_linear_7908_116094" x1="37" y1="18" x2="37" y2="46" gradientUnits="userSpaceOnUse">
<stop stop-color="#06BDFC"/>
<stop offset="1" stop-color="#06BDFC" stop-opacity="0.58"/>
</linearGradient>
<clipPath id="clip0_7908_116094">
<rect width="4.2682" height="5.69093" fill="white" transform="translate(23 49)"/>
</clipPath>
</defs>
</svg>
